# AST/ASF file generated using VICON BodyLanguage
# -----------------------------------------------
:version 1.10
:name VICON
:units
  mass 1.0
  length 0.45
  angle deg
:documentation
   .ast/.asf automatically generated from VICON data using
   VICON BodyBuilder and BodyLanguage model FoxedUp or BRILLIANT.MOD
:root
   order TX TY TZ RX RY RZ
   axis XYZ
   position 0 0 0  
   orientation 0 0 0 
:bonedata
  begin
     id 1 
     name lhipjoint
     direction 0.523584 -0.783993 0.333487 
     length 2.44404 
     axis 0 0 0  XYZ
  end
  begin
     id 2 
     name lfemur
     direction 0.34202 -0.939693 0  
     length 7.29523  
     axis 0 0 20  XYZ
    dof rx ry rz
    limits (-160.0 20.0)
           (-70.0 70.0)
           (-60.0 70.0)
  end
  begin
     id 3 
     name ltibia
     direction 0.34215 -0.939645 0   
     length 7.81194   
     axis 0 0 20   XYZ
    dof rx
    limits (-10.0 170.0)
  end
  begin
     id 4 
     name lfoot
     direction 0.0941847 -0.25877 0.961336   
     length 2.41437   
     axis -90 7.62852e-016 20   XYZ
    dof rx rz
    limits (-45.0 90.0)
           (-70.0 20.0)
  end
  begin
     id 5 
     name ltoes
     direction 1.53526e-011 -4.21768e-011 1   
     length 1.2048   
     axis -90 7.62852e-016 20   XYZ
    dof rx
    limits (-90.0 20.0)
  end
  begin
     id 6 
     name rhipjoint
     direction -0.46599 -0.814191 0.346332   
     length 2.35339  
     axis 0 0 0  XYZ 
  end
  begin
     id 7 
     name rfemur
     direction -0.34202 -0.939693 0   
     length 7.34966   
     axis 0 0 -20   XYZ
    dof rx ry rz
    limits (-160.0 20.0)
           (-70.0 70.0)
           (-70.0 60.0)
  end
  begin
     id 8 
     name rtibia
     direction -0.34202 -0.939693 0   
     length 7.89934   
     axis 0 0 -20   XYZ
    dof rx
    limits (-10.0 170.0)
 end
 begin
     id 9 
     name rfoot
     direction -0.0975468 -0.268008 0.958466   
     length 2.27725  
     axis -90 -7.62852e-016 -20   XYZ
    dof rx rz
    limits (-45.0 90.0)
           (-20.0 70.0)
  end
  begin
     id 10 
     name rtoes
     direction -1.53563e-011 -4.22022e-011 1   
     length 1.13683   
     axis -90 -7.62852e-016 -20   XYZ
    dof rx
    limits (-90.0 20.0)
  end
  begin
     id 11 
     name lowerback
     direction -0.00456414 0.999242 -0.0386661   
     length 2.16968   
     axis 0 0 0   XYZ
    dof rx ry rz
    limits (-20.0 45.0)
           (-30.0 30.0)
           (-30.0 30.0)
  end
  begin
     id 12 
     name upperback
     direction 0.0297078 0.998988 0.0337799   
     length 2.15674   
     axis 0 0 0   XYZ
    dof rx ry rz
    limits (-20.0 45.0)
           (-30.0 30.0)
           (-30.0 30.0)
  end
  begin
     id 13 
     name thorax
     direction 0.0309305 0.998202 0.0513506   
     length 2.16319   
     axis 0 0 0   XYZ
    dof rx ry rz
    limits (-20.0 45.0)
           (-30.0 30.0)
           (-30.0 30.0)
  end
  begin
     id 14 
     name lowerneck
     direction -0.103039 0.983474 0.148872   
     length 1.64318   
     axis 0 0 0   XYZ
    dof rx ry rz
    limits (-20.0 45.0)
           (-30.0 30.0)
           (-30.0 30.0)
  end
  begin
     id 15 
     name upperneck
     direction 0.128124 0.971079 -0.201469   
     length 1.68242   
     axis 0 0 0   XYZ
    dof rx ry rz
    limits (-20.0 45.0)
           (-30.0 30.0)
           (-30.0 30.0)
  end
  begin
     id 16
     name head
     direction 0.0496365 0.994919 -0.0875941  
     length 1.70108  
     axis 0 0 0   XYZ
    dof rx ry rz
    limits (-20.0 45.0)
           (-30.0 30.0)
           (-30.0 30.0)
  end
  begin
     id 17 
     name lclavicle
     direction 0.887148 0.430222 -0.166967  
     length 3.25763  
     axis 0 0 0   XYZ
    dof ry rz
    limits (-20.0 10.0)
           (0.0 20.0)
  end
  begin
     id 18 
     name lhumerus
     direction 1 -4.48962e-011 1.92156e-027   
     length 5.10755   
     axis 180 -30 -90   XYZ
    dof rx ry rz
    limits (-60.0 90.0)
           (-90.0 90.0)
           (-90.0 90.0)
  end
  begin
     id 19
     name lradius
     direction 1 -4.48958e-011 7.10963e-027   
     length 3.36253   
     axis 180 -30 -90   XYZ
    dof rx
    limits (-10.0 170.0)
  end
  begin
     id 20
     name lwrist
     direction 1 -4.48946e-011 1.82396e-026   
     length 1.68127   
     axis -1.15222e-014 90 90   XYZ
    dof ry
    limits (-180.0 0.0)
 end
  begin
     id 21 
     name lhand
     direction 1 -4.48919e-011 3.64759e-026   
     length 0.619088   
     axis -2.32787e-014 90 90   XYZ
    dof rx rz
    limits (-90.0 90.0)
           (-45.0 45.0)
  end
  begin
     id 22 
     name lfingers
     direction 1 -4.49012e-011 7.29744e-026   
     length 0.499125   
     axis -4.6558e-014 90 90   XYZ
    dof rx
    limits (0.0 90.0)
  end
  begin
     id 23
     name lthumb
     direction 0.707107 -6.35028e-011 0.707107   
     length 0.716646   
     axis -90 45 3.78391e-014   XYZ
    dof rx rz
    limits (-45.0 45.0)
           (-45.0 45.0)
  end
  begin
     id 24 
     name rclavicle
     direction -0.82886 0.533198 -0.169384   
     length 3.20647  
     axis 0 0 0   XYZ 
    dof ry rz
    limits (-10.0 20.0)
           (-20.0 0.0)
  end
  begin
     id 25 
     name rhumerus
     direction -1 -4.48973e-011 3.06863e-027  
     length 5.27387   
     axis 180 30 90   XYZ
    dof rx ry rz
    limits (-90.0 60.0)
           (-90.0 90.0)
           (-90.0 90.0)
  end
  begin
     id 26 
     name rradius
     direction -1 -4.48988e-011 9.4797e-027   
     length 3.40144   
     axis 180 30 90   XYZ
    dof rx
    limits (-10.0 170.0)
  end
  begin
     id 27 
     name rwrist
     direction -1 -4.48897e-011 1.82366e-026   
     length 1.70072   
     axis -1.15222e-014 -90 -90   XYZ
    dof ry
    limits (-180.0 0.0)
  end
  begin
     id 28
     name rhand
     direction -1 -4.48965e-011 3.64815e-026   
     length 0.742821   
     axis -2.32787e-014 -90 -90   XYZ
    dof rx rz
    limits (-90.0 90.0)
           (-45.0 45.0)
  end
  begin
     id 29
     name rfingers
     direction -1 -4.49016e-011 7.29754e-026   
     length 0.598881   
     axis -4.6558e-014 -90 -90   XYZ
    dof rx
    limits (0.0 90.0)
  end
  begin
     id 30
     name rthumb
     direction -0.707107 -6.3488e-011 0.707107   
     length 0.859877   
     axis -90 -45 -3.78391e-014   XYZ
    dof rx rz
    limits (-45.0 45.0)
           (-45.0 45.0)
  end
:hierarchy
  begin
    root lhipjoint rhipjoint lowerback
    lhipjoint lfemur
    lfemur ltibia
    ltibia lfoot
    lfoot ltoes
    rhipjoint rfemur
    rfemur rtibia
    rtibia rfoot
    rfoot rtoes
    lowerback upperback
    upperback thorax
    thorax lowerneck lclavicle rclavicle
    lowerneck upperneck
    upperneck head
    lclavicle lhumerus
    lhumerus lradius
    lradius lwrist
    lwrist lhand lthumb
    lhand lfingers
    rclavicle rhumerus
    rhumerus rradius
    rradius rwrist
    rwrist rhand rthumb
    rhand rfingers
  end

#!OML:ASF F:\Work\Patient Classification 1\justin\Session 1\justin.ASF
:FULLY-SPECIFIED
:DEGREES
3257
root 0.560259 18.4254 -4.19288 4.39641 -0.62424 -3.0888
lowerback 10.1065 -0.765178 -1.17803
upperback 0.90137 -1.00092 2.98655
thorax -4.656 -0.444966 3.9274
lowerneck -16.774 -2.68094 -12.3478
upperneck 13.2632 -3.01413 13.845
head 7.22412 -0.856977 6.32652
rclavicle 9.24349e-015 -1.55052e-014
rhumerus 19.7003 38.4016 -45.3673
rradius 113.858
rwrist 14.0346
rhand -1.87574 1.4501
rfingers 7.12502
rthumb 23.7926 -27.0967
lclavicle 9.24349e-015 -1.55052e-014
lhumerus 36.4966 -23.5104 62.5195
lradius 33.3469
lwrist -12.1207
lhand -10.1271 30.2004
lfingers 7.12502
lthumb 15.8612 59.5708
rfemur -7.20878 0.173701 24.0831
rtibia 19.5097
rfoot -13.0881 -3.08247
rtoes -14.0636
lfemur -5.89307 1.06285 -15.2318
ltibia 18.2113
lfoot -11.6525 2.26214
ltoes -16.6802
3258
root 0.558972 18.4231 -4.19765 4.31238 -0.461749 -3.10017
lowerback 10.5267 -0.680254 -1.21548
upperback 0.842843 -0.886893 3.03617
thorax -4.95956 -0.381558 3.99741
lowerneck -17.0809 -2.83831 -12.5703
upperneck 13.4114 -3.19011 14.0437
head 7.35847 -0.924991 6.42209
rclavicle 1.05356e-014 3.18055e-015
rhumerus 17.7587 40.3565 -46.2458
rradius 113.335
rwrist 15.0839
rhand -2.61918 1.594
rfingers 7.12502
rthumb 23.0794 -27.0439
lclavicle 1.05356e-014 3.18055e-015
lhumerus 38.13 -22.9484 61.8943
lradius 33.9734
lwrist -13.1613
lhand -8.68864 31.419
lfingers 7.12502
lthumb 17.2461 60.6738
rfemur -7.15137 0.226038 24.1213
rtibia 19.5715
rfoot -12.9113 -3.27339
rtoes -14.4402
lfemur -5.85368 0.949474 -15.2062
ltibia 18.2383
lfoot -11.6358 2.17907
ltoes -16.5204
3259
root 0.558534 18.4231 -4.19823 4.28221 -0.168716 -2.96769
lowerback 11.394 -0.638037 -1.4718
upperback 0.311866 -0.844644 3.14104
thorax -6.0038 -0.327697 4.28364
lowerneck -16.9817 -2.92286 -12.7984
upperneck 13.9276 -3.30373 14.0256
head 7.52728 -0.995599 6.45749
rclavicle 3.52843e-015 7.55382e-015
rhumerus 15.1087 42.786 -47.5502
rradius 112.564
rwrist 16.1063
rhand -3.7959 1.5679
rfingers 7.12502
rthumb 21.9499 -27.2068
lclavicle 3.52843e-015 7.55382e-015
lhumerus 37.7726 -22.3989 62.9608
lradius 35.2337
lwrist -12.3775
lhand -10.9899 30.7885
lfingers 7.12502
lthumb 15.0302 60.2229
rfemur -7.14146 0.0895923 23.9963
rtibia 19.637
rfoot -12.9033 -3.44604
rtoes -14.3991
lfemur -5.83525 0.709666 -15.3416
ltibia 18.1707
lfoot -11.6232 2.122
ltoes -16.6439
3260
root 0.558783 18.4245 -4.19927 4.27286 0.139997 -2.79789
lowerback 11.5613 -0.582721 -1.53243
upperback 0.162424 -0.779922 3.08104
thorax -6.26181 -0.288015 4.25189
lowerneck -16.6228 -3.05278 -13.0302
upperneck 13.9112 -3.48406 14.1286
head 7.49153 -1.09755 6.50989
rclavicle -3.97569e-016 -7.95139e-016
rhumerus 12.8869 44.1996 -48.9815
rradius 111.379
rwrist 16.4881
rhand -4.64967 1.36835
rfingers 7.12502
rthumb 21.13 -27.5003
lclavicle -3.97569e-016 -7.95139e-016
lhumerus 39.3076 -22.5525 61.9216
lradius 36.1568
lwrist -11.9031
lhand -11.3792 31.047
lfingers 7.12502
lthumb 14.6552 60.5091
rfemur -7.17958 -0.142518 23.8194
rtibia 19.7218
rfoot -13.0112 -3.53762
rtoes -14.313
lfemur -5.81653 0.47559 -15.5291
ltibia 18.0162
lfoot -11.5382 2.0607
ltoes -16.9201
3261
root 0.555206 18.4254 -4.19632 4.2506 0.38837 -2.57829
lowerback 11.7455 -0.48174 -1.72596
upperback -0.0481243 -0.670228 3.05266
thorax -6.59702 -0.219023 4.32353
lowerneck -16.084 -3.21792 -13.3278
upperneck 13.8561 -3.70324 14.1544
head 7.41743 -1.23478 6.53994
rclavicle 5.91384e-015 -1.63003e-014
rhumerus 10.6084 45.3271 -50.5263
rradius 109.94
rwrist 17.029
rhand -5.02863 2.1584
rfingers 7.12502
rthumb 20.7659 -26.7505
lclavicle 5.91384e-015 -1.63003e-014
lhumerus 40.5433 -22.2444 61.5025
lradius 37.0082
lwrist -12.3494
lhand -11.5079 30.6996
lfingers 7.12502
lthumb 14.5312 60.1707
rfemur -7.17709 -0.254695 23.5995
rtibia 19.7805
rfoot -13.1733 -3.68721
rtoes -14.311
lfemur -5.77398 0.338696 -15.7614
ltibia 17.8861
lfoot -11.4566 1.91306
ltoes -17.0793
